<?xml version="1.0" standalone="no"?>
<!DOCTYPE svg PUBLIC "-//W3C//DTD SVG 1.1//EN" "http://www.w3.org/Graphics/SVG/1.1/DTD/svg11.dtd" >
<svg xmlns="http://www.w3.org/2000/svg">
<metadata>
Created by FontForge 20120731 at Mon May 15 13:23:12 2017
 By admin
</metadata>
<defs>
<font id="iconfont" horiz-adv-x="1024" >
  <font-face 
    font-family="iconfont"
    font-weight="500"
    font-stretch="normal"
    units-per-em="1024"
    panose-1="2 0 6 3 0 0 0 0 0 0"
    ascent="896"
    descent="-128"
    x-height="792"
    bbox="44 -212 980 896"
    underline-thickness="0"
    underline-position="0"
    unicode-range="U+0078-E769"
  />
<missing-glyph 
 />
    <glyph glyph-name=".notdef" 
 />
    <glyph glyph-name=".notdef" 
 />
    <glyph glyph-name=".null" horiz-adv-x="0" 
 />
    <glyph glyph-name="nonmarkingreturn" horiz-adv-x="341" 
 />
    <glyph glyph-name="x" unicode="x" horiz-adv-x="1001" 
d="M281 543q-27 -1 -53 -1h-83q-18 0 -36.5 -6t-32.5 -18.5t-23 -32t-9 -45.5v-76h912v41q0 16 -0.5 30t-0.5 18q0 13 -5 29t-17 29.5t-31.5 22.5t-49.5 9h-133v-97h-438v97zM955 310v-52q0 -23 0.5 -52t0.5 -58t-10.5 -47.5t-26 -30t-33 -16t-31.5 -4.5q-14 -1 -29.5 -0.5
t-29.5 0.5h-32l-45 128h-439l-44 -128h-29h-34q-20 0 -45 1q-25 0 -41 9.5t-25.5 23t-13.5 29.5t-4 30v167h911zM163 247q-12 0 -21 -8.5t-9 -21.5t9 -21.5t21 -8.5q13 0 22 8.5t9 21.5t-9 21.5t-22 8.5zM316 123q-8 -26 -14 -48q-5 -19 -10.5 -37t-7.5 -25t-3 -15t1 -14.5
t9.5 -10.5t21.5 -4h37h67h81h80h64h36q23 0 34 12t2 38q-5 13 -9.5 30.5t-9.5 34.5q-5 19 -11 39h-368zM336 498v228q0 11 2.5 23t10 21.5t20.5 15.5t34 6h188q31 0 51.5 -14.5t20.5 -52.5v-227h-327z" />
    <glyph glyph-name="4" unicode="&#xe604;" 
d="M752 419q-65 0 -120 -35l-2 6q46 31 72.5 80t26.5 107q0 94 -67 160.5t-161 66.5t-160.5 -66.5t-66.5 -160.5q0 -52 22 -98t61 -77q-40 15 -83 15q-94 0 -160.5 -66.5t-66.5 -160.5t66.5 -160.5t160.5 -66.5q63 0 116 31.5t83 85.5q10 -33 11 -67t-4.5 -61t-16 -54.5
t-20.5 -45.5t-21.5 -34.5t-16 -21.5t-6.5 -8v0h211q-34 45 -52 92t-20.5 83t0 64.5t7.5 44t6 15.5v0q29 -56 83 -89t118 -33q94 0 161 66.5t67 160.5t-67 160.5t-161 66.5z" />
    <glyph glyph-name="heitao" unicode="&#xe769;" 
d="M694 637q-67 47 -120.5 106t-61.5 89q-9 -32 -60.5 -89.5t-121.5 -103.5q-15 -10 -53.5 -33t-59.5 -37t-52.5 -40.5t-48.5 -51t-29.5 -60.5t-12.5 -77q1 -71 24 -128t60 -89.5t83.5 -45.5t93 -3.5t90.5 44.5t74 92q-1 -34 -6 -68.5t-15.5 -72.5t-29 -65t-43.5 -33
q-6 -1 -8.5 -6t1.5 -8q23 -14 75 -18.5t92.5 -2t56.5 5.5q13 3 15.5 8t0 8.5t-4.5 4.5q-41 23 -72 91t-34 150q30 -53 73.5 -85.5t89.5 -42t93 3t83.5 44.5t59.5 87.5t24 126.5q0 41 -12.5 76.5t-30.5 60t-47.5 50t-53.5 40.5t-59 37t-53 35z" />
    <glyph glyph-name="heitaobiaoji-copy" unicode="&#xe600;" 
d="M321 124q70 -49 126.5 -109.5t64.5 -91.5q9 34 63.5 93t127.5 106q16 10 48.5 29t53.5 32t49.5 33.5t47 41t36.5 46.5t26.5 57.5t8.5 67.5q-1 74 -25.5 132.5t-63 92t-88 46.5t-98 3t-95 -46t-78.5 -94q2 35 7.5 70.5t16 75t30.5 66.5t46 34q5 1 8 6t-1 9
q-24 14 -78.5 18.5t-97.5 2t-60 -6.5q-13 -3 -16 -8t-0.5 -8.5t4.5 -4.5q44 -23 76 -93.5t36 -154.5q-31 54 -77 88t-94.5 43.5t-97.5 -3.5t-88 -45.5t-63 -90t-25 -130.5q0 -42 13 -78.5t32 -61.5t50.5 -51.5t56.5 -42t62 -38t56 -35.5z" />
    <glyph glyph-name="4-copy" unicode="&#xe601;" 
d="M272 265q65 0 120 35l2 -6q-46 -31 -72.5 -80t-26.5 -107q0 -94 67 -160.5t161 -66.5t160.5 66.5t66.5 160.5q0 52 -22 98t-61 77q40 -15 83 -15q94 0 160.5 66.5t66.5 160.5t-66.5 160.5t-160.5 66.5q-63 0 -116 -31.5t-83 -85.5q-13 49 -10.5 92.5t16 80t29 63
t27.5 41.5l12 15h-211q96 -128 69 -263q-7 -36 -10 -36v0q-29 56 -83 89t-118 33q-94 0 -161 -66.5t-67 -160.5t67 -160.5t161 -66.5z" />
    <glyph glyph-name="hongtao-copy" unicode="&#xe602;" 
d="M512 145q28 -71 73.5 -116.5t94 -60.5t99 -3t90.5 48t65 101t26 147q0 39 -8 73t-25.5 62.5t-35.5 50.5t-46 44t-48.5 36.5t-51.5 35t-47 31.5q-71 50 -124 114t-62 100q-8 -33 -63 -98.5t-123 -117.5q-18 -15 -54 -39.5t-60.5 -41t-55 -45t-49 -56t-31 -67t-12.5 -84.5
q1 -82 26.5 -146t66 -99t91 -46t99.5 4t93.5 60t71.5 113z" />
    <glyph glyph-name="paijujilu-fangkuaihuase" unicode="&#xe606;" 
d="M909 399l-367 381q-12 14 -30 14t-31 -14l-366 -381q-13 -13 -13 -32t13 -32l366 -381q13 -13 31 -13t30 13l367 381q12 13 12 32t-12 32z" />
    <glyph glyph-name="paijujilu-heitaohuase" unicode="&#xe608;" 
d="M682 662q-62 48 -112 108.5t-58 91.5q-8 -33 -56.5 -92.5t-113.5 -105.5q-14 -11 -50 -35t-56 -38t-49.5 -41.5t-45 -52.5t-27.5 -62t-12 -79q1 -74 22.5 -132t56 -92t78.5 -47t87.5 -3t84.5 46t69 94q-1 -35 -6 -70.5t-14.5 -75t-27 -66.5t-40.5 -34q-5 -1 -7.5 -6
t1.5 -9q21 -14 69.5 -18.5t86.5 -2t53 6.5q12 3 14.5 8t0 8.5t-4.5 4.5q-38 23 -67 93.5t-32 154.5q28 -54 69 -88t84 -43.5t86.5 3.5t78 45.5t56 90t22.5 130.5q0 42 -12 78.5t-28.5 61.5t-44.5 51.5t-50 42t-55 38t-50 36.5z" />
    <glyph glyph-name="paijujilu-hongtaohuase" unicode="&#xe609;" 
d="M512 580q-26 69 -67 113t-86 58.5t-91 3t-82.5 -46.5t-59.5 -97.5t-24 -141.5q0 -44 12 -82.5t27.5 -65t45 -55t49.5 -43.5t56 -40t50 -36q65 -48 113.5 -110t57.5 -97q7 32 57 95.5t112 113.5q17 14 50 37.5t55 40t50 44t44.5 54t28.5 64.5t12 82q-1 79 -24.5 141
t-60.5 95.5t-83.5 44t-91 -4t-85.5 -58t-65 -109.5z" />
    <glyph glyph-name="paijujilu-meihuahuase" unicode="&#xe60a;" 
d="M794 486q-32 0 -57.5 -9t-37.5 -18t-26 -24q-7 -6 -12 -2t1 12q31 47 47 85.5t16 87.5q0 32 -11 61.5t-34.5 56t-66 42.5t-99.5 16q-44 0 -80.5 -14t-58 -34.5t-36.5 -45t-20.5 -44.5t-5.5 -36q0 -52 16 -87t54 -63q4 -3 4 -7t-3 -5t-7 1q-84 52 -132 52
q-62 0 -102.5 -58t-40.5 -141q0 -85 50.5 -154t121.5 -69q67 0 116.5 41t74.5 94q9 19 19 19t10 -18q0 -29 -4 -64.5t-13 -77t-28 -72.5t-45 -37q-5 -1 -8 -6t2 -8q21 -13 70 -17t87.5 -2t53.5 5q12 3 14.5 8t0.5 8t-4 5q-42 22 -71.5 93t-29.5 153q0 17 9 17q10 0 24 -31
q22 -46 79.5 -90.5t118.5 -44.5q69 0 120 67t51 166q1 91 -34.5 140t-92.5 49z" />
    <glyph glyph-name="paijujilu-shuzi" unicode="&#xe60b;" 
d="M440 127q22 62 121 142q99 83 135 130q63 87 63 190q0 107 -60 175q-61 67 -156 67q-105 0 -169 -88q-62 -82 -64 -217h107q3 95 33 143q30 51 90 51q56 0 85 -32q28 -33 28 -98q0 -67 -43 -127q-30 -39 -89 -90q-114 -97 -149 -148q-65 -90 -65 -214h453v116h-320v0z
" />
    <glyph glyph-name="paijujilu-shuzi1" unicode="&#xe60c;" 
d="M738 368q-29 43 -88 66q109 44 109 175q0 104 -60 164q-59 58 -159 58q-97 0 -158 -66q-64 -67 -72 -189h104q6 72 38 108q31 35 89 35q56 0 85 -31q26 -31 26 -89q0 -59 -29 -90q-31 -30 -88 -30h-45v-99h45q64 0 96 -33q34 -33 34 -101q0 -57 -32 -96q-36 -43 -98 -43
q-55 0 -90 39q-37 42 -40 121h-108q8 -137 76 -207q62 -64 163 -64q106 0 172 73q63 71 63 182q0 72 -33 117z" />
    <glyph glyph-name="paijujilu-shuzi2" unicode="&#xe60d;" 
d="M659 288v528h-98l-318 -507v-125h315v-173h101v173h96v104h-96zM558 288h-228l225 361h3v-361v0z" />
    <glyph glyph-name="paijujilu-shuzi3" unicode="&#xe60e;" 
d="M712 475q-57 75 -149 75q-44 0 -80 -17q-38 -17 -69 -54h-2l18 221h310v116h-396l-36 -453h100q19 41 53 62q29 18 73 18q64 0 96 -47q34 -46 34 -127q0 -73 -39 -118q-40 -44 -98 -44q-52 0 -84 28q-35 32 -42 98h-104q7 -112 77 -178q63 -60 152 -60q97 0 168 71
q76 80 76 204q0 130 -58 205z" />
    <glyph glyph-name="paijujilu-shuzi4" unicode="&#xe60f;" 
d="M275 816v-120h332l-233 -685h113l228 699v106h-440z" />
    <glyph glyph-name="paijujilu-shuzi5" unicode="&#xe610;" 
d="M714 469q-57 75 -153 75q-51 0 -88 -22q-41 -25 -68 -74h-5v10q0 114 38 186q38 79 104 79q93 0 112 -111h104q-24 219 -216 219q-113 0 -179 -121q-67 -121 -67 -319q0 -185 62 -289q63 -107 183 -107q97 0 163.5 79t66.5 200q0 118 -57 195zM630 152.5
q-36 -47.5 -92 -47.5t-91.5 44t-35.5 120q0 80 34 123q32 45 93 45q59 0 94 -45q33 -45 33 -118q1 -74 -35 -121.5z" />
    <glyph glyph-name="paijujilu-shuzi6" unicode="&#xe611;" 
d="M740 368q-33 53 -78 68v2q46 23 72 69q22 42 22 104q0 90 -56 152q-62 68 -166 68q-106 0 -167 -68q-56 -61 -56 -152q0 -62 22 -104q24 -46 72 -69v-2q-45 -15 -78 -68q-38 -56 -38 -132q0 -107 64 -174q63 -67 181 -67q115 0 180 67q64 68 64 174q0 74 -38 132z
M441 688q34 39 93 39q56 0 92 -39q30 -33 30 -82q0 -56 -25 -88q-31 -39 -97.5 -39t-97.5 39q-24 32 -24 88q-1 48 29 82zM637 140q-39 -39 -103 -39q-67 0 -103 37t-36 99q0 65 35 103q35 41 103.5 41t104.5 -42q34 -38 34 -102q0 -60 -35 -97z" />
    <glyph glyph-name="paijujilu-shuzi7" unicode="&#xe612;" 
d="M708 726q-62 105 -182 105q-99 0 -164 -78t-65 -200q0 -119 56 -193q58 -77 154 -77q48 0 88 22q39 24 68 73h5v-10q0 -110 -38 -185q-40 -79 -104 -79q-94 0 -113 111h-103q23 -219 216 -219q112 0 179 121q67 124 67 319q-1 185 -64 290zM623 435q-35 -45 -93 -45
q-59 0 -93 45q-35 43 -35 118.5t35 121.5q35 47 93 47q55 0 91 -44t36 -120t-34 -123z" />
    <glyph glyph-name="paijujilu-shuzi8" unicode="&#xe613;" 
d="M407 816h-60q-24 -41 -61 -79q-37 -34 -70 -48v-130q67 32 111 98v-646h80v805zM807 714q-48 117 -133 117q-87 0 -134 -117q-45 -111 -45 -300.5t45 -300.5q48 -117 134 -117q84 0 133 117q45 111 45 300.5t-45 300.5zM674 107q-59 0 -82 107q-17 75 -17 199
q0 127 17 200q23 107 82 107q57 0 82 -107q16 -73 16 -200q0 -124 -16 -199q-13 -53 -33.5 -80t-48.5 -27z" />
    <glyph glyph-name="paijujilu-shuziA" unicode="&#xe614;" 
d="M588 845h-109l-224 -868h103l53 218h245l53 -218h103zM440 311l92 381h4l91 -381h-187z" />
    <glyph glyph-name="paijujilu-shuzij" unicode="&#xe615;" 
d="M608 816v-540q0 -86 -24 -125q-25 -40 -79 -40q-96 0 -96 139v25h-107v-26q0 -118 52 -186q51 -67 149 -67q113 0 165 71q47 67 47 205v544h-107z" />
    <glyph glyph-name="paijujilu-shuzik" unicode="&#xe616;" 
d="M530 471l286 345h-135l-302 -380v380h-107v-805h107v277l79 96l257 -373h144z" />
    <glyph glyph-name="paijujilu-shuziq" unicode="&#xe617;" 
d="M763 420q0 190 -68 306q-72 122 -196 122q-126 0 -196 -123q-68 -116 -68 -305q0 -187 68 -303q71 -122 196 -122q81 0 142 53q21 -43 60 -126l58 75q-24 53 -60 124q64 116 64 299zM643 225q-39 70 -79 133l-51 -76q36 -57 78 -135q-39 -33 -92 -33q-85 0 -130 85
q-45 82 -45 221q0 141 45 223q46 86 130 86q85 0 130 -81q45 -84 45 -228q0 -117 -31 -195z" />
  </font>
</defs>
</svg>
